<?xml version="1.0" encoding="UTF-8"?>
<svg width="1200pt" height="1200pt" version="1.1" viewBox="0 0 1200 1200" xmlns="http://www.w3.org/2000/svg">
 <path d="m1199.9 53.953v-53.766h-53.766c-242.81 0-451.92 145.31-546.24 353.29-94.266-208.03-303.42-353.29-546.24-353.29h-53.766v53.766c0 242.81 145.31 451.92 353.29 546.24-207.98 94.312-353.29 303.42-353.29 546.24v53.766h53.766c242.81 0 451.92-145.31 546.24-353.29 94.312 207.98 303.42 353.29 546.24 353.29h53.766v-53.766c0-242.81-145.31-451.92-353.29-546.24 208.03-94.312 353.29-303.47 353.29-546.24zm-1089.2 57c226.03 26.203 405.84 206.02 432.05 432.05-226.03-26.203-405.84-205.97-432.05-432.05zm0 978.42c26.203-226.03 206.02-405.84 432.05-432.05-26.203 226.03-206.06 405.84-432.05 432.05zm978.42 0c-226.03-26.203-405.84-206.02-432.05-432.05 226.03 26.203 405.79 206.02 432.05 432.05zm-432.05-546.32c26.203-226.03 206.02-405.84 432.05-432.05-26.25 226.03-206.02 405.79-432.05 432.05z"/>
</svg>
