<?xml version="1.0" encoding="UTF-8"?>
<svg width="1200pt" height="1200pt" version="1.1" viewBox="0 0 1200 1200" xmlns="http://www.w3.org/2000/svg">
 <path d="m1139.9 806.5c-9.5508-82.199-32.988-161.73-68.375-236.45-35.27-74.426-87.191-138.85-142.62-199.2-57.637-62.746-121.99-119.3-191.52-168.52-57.562-40.754-121.52-69.949-189.07-89.941-68.125-20.172-142.57-32.941-213.77-31.453-63.828 1.3086-125.22 24.543-175.77 63.039-25.43 19.379-48.121 41.449-68.711 65.879-9.3594 11.102-18.406 21.926-23.242 35.305-10.609 15.91-16.906 35.734-16.906 57.215 0 2.5195 0.12109 5.0273 0.27734 7.5-0.60156 5.2578 0.17969 10.715 2.2305 15.613 9.0859 41.23 41.93 71.762 81.047 71.762 46.152 0 83.555-42.48 83.555-94.871 0-19.883-5.3984-38.328-14.605-53.578 16.691-8.9883 34.57-15 54.145-15.984 69.648-3.4688 132.56 44.113 175.33 94.344 49.934 58.633 77.941 132.07 90.277 207.32 13.992 85.285 5.4375 172.08 4.6797 257.91-0.67188 73.922 7.5234 148.62 39.781 215.95 33.625 70.176 96.469 117.88 168.53 143.69 69.781 24.996 150 25.355 220.05 1.4297 67.766-23.172 122.81-72.828 154.57-136.78 32.664-65.68 38.438-138.32 30.109-210.2zm-78.109 177.54c-27.863 60.422-78.48 102.59-142.43 120.2-66.59 18.324-140.64 9.2031-201.89-22.105-64.621-33.047-103.6-90.602-120.84-160.02-18.457-74.328-11.027-152-9.3594-227.65 1.9336-88.094-2.1016-177.8-31.008-261.83-35.809-104.06-111.06-201.25-215.4-242.15-48.133-18.875-99.457-20.051-146.81-1.0312 8.8438-6.625 18.023-12.828 27.625-18.504 63.48-37.402 134.68-35.82 205.5-25.848 79.43 11.195 158.02 34.402 228.38 73.262 71.699 39.59 135.73 95.605 193.71 152.89 57.539 56.832 112.66 119.2 152.72 189.77 39.312 69.277 64.297 146.38 77.316 224.79 10.984 66.336 11.113 136.08-17.531 198.23z"/>
 <path d="m1001.2 824.96c-3.8281-4.6094-8.9766-7.8008-14.785-9.3359 0.16797-5.1016 0.12109-8.3281 0.12109-8.3281s0.023437-3.2539-0.17969-8.3516c5.7969-1.5703 10.934-4.7891 14.734-9.3945 5.3398-6.3711 8.0391-15.359 6.6484-24.719-1.4023-9.3359-6.5898-17.074-13.512-21.625-4.9453-3.2891-10.754-4.9336-16.777-4.8359-1.2344-4.9688-2.1484-8.1016-2.1484-8.1133 0 0-0.83984-3.1445-2.3281-8.0508 5.207-3 9.3359-7.4023 11.902-12.742 3.6133-7.4414 4.1758-16.621 0.78125-25.246-3.3594-8.6289-9.9727-14.914-17.641-17.953-5.4961-2.1953-11.52-2.6875-17.398-1.4023-2.1953-4.668-3.6484-7.5859-3.6484-7.5859s-1.4297-2.9414-3.793-7.5234c4.5977-3.8867 7.8945-8.9648 9.5273-14.641 2.293-7.8945 1.3906-16.906-3.2266-24.793-4.5977-7.8945-11.977-13.066-19.957-14.988-5.7344-1.3672-11.746-1.0312-17.41 1.0195-2.8086-4.332-4.6562-7.043-4.6562-7.043s-1.8008-2.7344-4.7266-6.9961c4.0664-4.4531 6.707-9.875 7.668-15.684 1.3203-8.1016-0.57422-16.859-5.9648-24.133-9.3242-12.527-25.57-16.117-38.594-9.9258-3.2266-4.0195-5.293-6.5625-5.293-6.5625s-2.0625-2.5312-5.3633-6.5039c8.7109-11.496 8.4961-28.117-1.7773-39.758-10.273-11.652-26.723-13.934-39.227-6.7578-3.5273-3.7812-5.7734-6.1562-5.7734-6.1562s-2.2578-2.3867-5.832-6.1445c7.8828-12.059 6.6484-28.512-4.0664-39.48-10.754-10.98-27.191-12.562-39.395-4.9219-3.6836-3.6602-6.0234-5.9531-6.0234-5.9531s-2.3516-2.293-6.0586-5.9141c7.4141-12.348 5.5547-28.777-5.6758-39.312-11.207-10.547-27.742-11.387-39.602-3.1914-3.8398-3.4805-6.2773-5.6641-6.2773-5.6641s-2.4492-2.1953-6.3359-5.6172c6.8398-12.695 4.1406-29.027-7.6445-39-11.785-9.9844-28.355-9.9258-39.742-1.0664-4.0312-3.2539-6.6016-5.3047-6.6016-5.3047s-2.5664-2.0391-6.625-5.2422c6.1094-13.043 2.4844-29.242-9.8516-38.508-12.336-9.3008-28.883-8.293-39.73 1.1875-4.2109-3.0117-6.8867-4.9062-6.8867-4.9062s-2.6758-1.9062-6.9102-4.8711c5.3516-13.367 0.82812-29.316-11.988-37.883-10.5-7.0312-23.449-7.0195-33.48-1.2617-0.070313-0.085938-0.16797-0.19141-0.22656-0.26562-1.2852-1.4414-2.3281-2.5195-3.1797-3.3945-1.6797-1.6914-2.6289-2.6758-2.6289-2.6758l-6.707 6.7188c-0.28906-0.19141-0.50391-0.32422-0.50391-0.32422l-1.4297 2.2578-2.5664 2.5547s0.21484 0.21484 0.57422 0.57422l-5.0742 7.9922s2.6289 1.6562 6.7578 4.2969c-0.60156 1.1758-1.1758 2.3633-1.6445 3.6133-0.69531 1.9062-0.94922 4.2109-0.88672 6.4688 0.046875 2.293 0.33594 4.5 0.81641 6.6602 0.23828 1.0664 0.52734 2.125 0.86328 3.1797 0.16797 0.51562 0.55078 1.2227 0.85156 1.8359l0.75781 1.5586c0.96094 1.9219 2.2695 3.9102 3.5039 5.6055 1.2461 1.6797 2.6641 3.2383 4.2617 4.6914 6.3945 5.7969 14.461 8.5195 22.547 8.3398 5.7734-0.14453 11.555-1.8008 16.645-5.0039 3.7188 3.6953 6.0859 6.0234 6.0859 6.0234s2.3398 2.3398 5.9766 6.1211c-3.2656 5.0625-4.9922 10.836-5.2422 16.609-0.3125 8.0625 2.1719 16.094 7.6211 22.512 5.4609 6.4219 12.91 10.141 20.879 11.16 5.7109 0.70703 11.688 0.023437 17.23-2.2812 3.0977 4.2461 4.9805 7.0078 4.9805 7.0078s1.9062 2.7344 4.7891 7.1406c-4.1289 4.3672-6.9102 9.707-8.2812 15.266-1.9336 7.7891-1.2227 15.984 2.6055 23.27 1.9062 3.6602 4.4414 6.7578 7.4414 9.3359 2.9766 2.6523 6.5898 4.8242 10.344 6.1797 5.3867 1.9062 11.363 2.5781 17.305 1.5977 2.0273 4.8594 3.2266 7.9922 3.2266 7.9922s1.2344 3.1094 2.9883 8.0898c-5.0508 3.2656-9.0352 7.7891-11.711 12.84-3.7422 7.1055-5.0273 15.227-3.0117 23.281 1.9922 8.0391 6.9727 14.688 13.633 19.199 4.7656 3.2031 10.414 5.2812 16.402 5.7227 0.85156 5.1953 1.2852 8.4961 1.2852 8.4961s0.48047 3.2891 1.1055 8.4961c-5.6523 2.0742-10.512 5.6523-14.195 10.066-5.1367 6.1914-8.0273 14.051-7.5859 22.512 0.43359 8.4609 4.1641 16.02 9.9492 21.648 4.1523 4.0078 9.3828 7.0078 15.227 8.4258-0.011719 5.2305-0.085938 8.543-0.085938 8.543s-0.085938 3.3242-0.25391 8.5547c-1.7656 0.35937-3.4922 0.83984-5.1484 1.4883-3.8516 1.5352-7.3438 3.5273-10.344 6.5898-2.9297 3.1914-5.2305 6.5273-6.875 10.246-1.668 3.7422-2.6172 7.8359-2.7109 12.18-0.38281 14.879 9.5508 27.926 23.461 31.754-0.20312 5.1953-0.34766 8.4844-0.34766 8.4844s-0.12109 3.3008-0.3125 8.4844c-14.172 2.7109-25.164 14.941-25.668 30.266-0.51562 15.371 9.7695 28.379 23.762 31.836-0.058594 5.1719-0.085938 8.4375-0.085938 8.4375s-0.023437 3.2656 0 8.4375c-14.016 3.3477-24.434 16.344-23.723 32.051 0.39453 9.1094 4.5117 17.172 10.727 22.559 4.4531 3.8867 9.9609 6.3711 15.926 7.1641 0.51562 5.125 0.92578 8.3516 0.92578 8.3516s0.35938 3.2383 1.0664 8.3281c-5.6172 2.1719-10.379 5.8672-13.766 10.727-4.7539 6.7578-6.7422 15.758-4.6914 24.91 2.0391 9.168 7.7773 16.559 15.023 20.617 5.2188 2.9531 11.137 4.1406 17.125 3.5273 1.6445 4.8359 2.8203 7.8594 2.8203 7.8594s1.0938 3.0469 3.0703 7.7539c-4.8711 3.5039-8.543 8.3281-10.414 14.027-2.6992 7.8828-1.8711 17.438 3.1445 25.789 5.0156 8.375 13.164 13.656 21.434 14.941 5.9414 0.97266 11.914-0.10938 17.258-2.8555 3.2891 3.8633 5.5078 6.1914 5.5078 6.1914s2.1719 2.375 5.8086 5.9141c-3.1211 5.1484-4.5469 11.016-4.2734 16.906 0.52734 8.3398 5.2578 17.148 13.645 22.836 8.3398 5.7461 18.348 7.0195 26.41 4.4414 5.8203-1.8359 10.609-5.6055 13.969-10.559 4.7031 1.8125 7.7539 2.7344 7.7539 2.7344s3.0234 1.0312 7.9062 2.2422c-0.10938 6.0117 1.6094 11.832 5.3164 16.703 5.0742 6.7812 13.98 11.52 24.156 11.652 10.164 0.15625 19.129-4.3086 24.395-10.895 3.8516-4.7383 5.7852-10.465 5.9297-16.477 4.9336-1.0312 8.0156-1.9062 8.0156-1.9062s3.1094-0.76953 7.9062-2.3398c3.0977 5.1602 7.6445 9.168 13.309 11.375 7.8125 3.1211 17.711 2.6289 26.387-2.3047 8.6875-4.9219 14.172-13.152 15.504-21.434 1.0195-5.9883-0.058594-11.953-2.8555-17.27 3.8398-3.2773 6.1328-5.543 6.1328-5.543s2.3633-2.1836 5.8203-5.8555c5.1953 3.0352 11.102 4.4023 17.125 3.6719 8.3398-0.97266 16.801-6.0703 22.117-14.531 5.3281-8.4492 6.2539-18.301 3.5156-26.258-1.957-5.7461-5.7461-10.453-10.754-13.812 1.8242-4.7383 2.7461-7.7891 2.7461-7.7891s0.34766-1.1641 0.97266-3.1797c0.38281-1.2617 0.85156-2.9297 1.4023-4.8477 6.0117 0.33594 11.902-1.043 16.992-4.2109 7.0938-4.3555 12.539-12.18 14.062-21.672 1.5625-9.5898-1.1641-18.676-6.4922-25.047zm-45.695 64.141c-0.011719 0.023437-0.011719 0.035156-0.023438 0.058593-0.21484 0.51563-0.43359 1.043-0.67188 1.5586-0.20312 0.50391-0.43359 1.0547-0.69531 1.6328 0 0.011719-0.011719 0.011719-0.011719 0.023437-0.23828 0.52734-0.48047 1.0664-0.73047 1.6328-0.43359 0.97266-0.9375 2.0273-1.4766 3.1094-0.19141 0.39453-0.38281 0.80469-0.60156 1.2109-0.51562 1.043-1.0547 2.1016-1.6328 3.1914-0.058594 0.097656-0.097657 0.17969-0.13281 0.25391-0.70703 1.2969-1.4297 2.6055-2.1953 3.9375-0.10938 0.19141-0.21484 0.34766-0.3125 0.52734-0.76953 1.3438-1.5977 2.6992-2.4258 4.0195-0.79297 1.2969-1.6328 2.5547-2.4727 3.793-0.19141 0.25391-0.35938 0.51562-0.52734 0.76953-0.81641 1.2109-1.668 2.375-2.4727 3.5039-0.12109 0.15625-0.23828 0.28906-0.33594 0.44531-0.70703 0.92578-1.3672 1.8242-2.0273 2.6992-0.28906 0.34766-0.5625 0.70703-0.82812 1.043-0.74219 0.94922-1.4883 1.8594-2.1602 2.6875-0.16797 0.19141-0.32422 0.37109-0.48047 0.5625-0.32422 0.37109-0.64844 0.74219-0.96094 1.1289-0.22656 0.25391-0.43359 0.52734-0.63672 0.75781-0.49219 0.53906-0.96094 1.0781-1.4141 1.5977-0.68359 0.74219-1.3086 1.4414-1.9336 2.1016-0.085937 0.097657-0.14453 0.15625-0.14453 0.15625-3.2539 3.457-5.4609 5.5078-5.4609 5.5078s-3.0859 3.0586-8.1133 7.1758c-0.50391 0.40625-1.0312 0.83984-1.5703 1.2617-0.3125 0.25391-0.64844 0.50391-0.99609 0.76953-0.30078 0.25391-0.625 0.46875-0.94922 0.71875-0.21484 0.19141-0.43359 0.35938-0.68359 0.53906-0.81641 0.63672-1.7656 1.3203-2.7344 2.0039-0.38281 0.27734-0.78125 0.5625-1.1992 0.83984-0.83984 0.60156-1.7031 1.1875-2.5938 1.8008-0.22656 0.13281-0.40625 0.26562-0.625 0.40625-1.1523 0.75781-2.3398 1.5117-3.5625 2.2812-0.28906 0.16797-0.5625 0.33594-0.83984 0.51562-1.2734 0.76953-2.5664 1.5469-3.875 2.293-1.3438 0.75781-2.7109 1.4766-4.0547 2.207-0.22656 0.10938-0.45703 0.25391-0.69531 0.34766-1.332 0.68359-2.6641 1.3555-3.9609 1.9805-0.058594 0.023438-0.13281 0.046875-0.21484 0.085938-1.1758 0.5625-2.293 1.0664-3.3945 1.5586-0.33594 0.15625-0.70703 0.30078-1.043 0.45703-1.1289 0.49219-2.2305 0.96094-3.2539 1.3555-0.40625 0.16797-0.80469 0.3125-1.1875 0.48047-0.22656 0.070312-0.43359 0.16797-0.66016 0.25391-0.43359 0.16797-0.83984 0.3125-1.2461 0.45703-0.625 0.25391-1.2617 0.48047-1.8594 0.69531-6.0859 2.1484-10.246 3.1914-10.246 3.1914s-4.1406 1.1875-10.441 2.3164c-0.67188 0.13281-1.3672 0.25391-2.0898 0.34766-0.30078 0.070312-0.64844 0.10938-0.96094 0.15625-0.43359 0.070312-0.89844 0.14453-1.3555 0.21484-0.25391 0.035157-0.49219 0.070313-0.76953 0.10938-1.043 0.15625-2.207 0.27734-3.3711 0.39453-0.42188 0.046875-0.85156 0.10938-1.2734 0.14453-1.0664 0.097656-2.1719 0.20312-3.3125 0.27734-0.19141 0.011718-0.37109 0.023437-0.55078 0.035156-1.3672 0.097656-2.7617 0.16797-4.2109 0.20312-0.30078 0.011719-0.60156 0.023437-0.91016 0.023437-1.4648 0.035157-2.9531 0.046876-4.4414 0.023438-1.4883-0.011719-2.9766-0.070312-4.4531-0.14453-0.28906-0.011719-0.57422-0.046875-0.85156-0.058594-1.4414-0.085937-2.8555-0.17969-4.2461-0.3125-0.12109-0.011719-0.22656-0.035156-0.34766-0.035156-1.2109-0.13281-2.3633-0.25391-3.4922-0.40625-0.37109-0.058594-0.76953-0.097657-1.1289-0.15625-1.1875-0.16797-2.3398-0.33594-3.3945-0.52734-0.45703-0.070313-0.88672-0.15625-1.3203-0.23828-0.17969-0.035156-0.35938-0.058594-0.55078-0.097656-0.45703-0.097657-0.89844-0.17969-1.3203-0.25391-0.64844-0.13281-1.2734-0.26562-1.8711-0.38281-6.168-1.3555-10.141-2.7344-10.141-2.7344s-4.043-1.1875-9.8398-3.6484c-1.3906-0.57422-2.8672-1.2461-4.4414-2.0039-0.097656-0.035156-0.19141-0.070312-0.26562-0.12109-0.023438 0-0.058594-0.011718-0.085938-0.023437-1.4531-0.71875-2.9766-1.5-4.5-2.293-0.34766-0.20312-0.69531-0.39453-1.0547-0.58984-1.2227-0.68359-2.4609-1.3789-3.707-2.1367-0.49219-0.27734-0.96094-0.55078-1.4531-0.86328-1.6211-0.98438-3.2266-2.0273-4.8125-3.1211-1.6211-1.0938-3.1797-2.2422-4.7148-3.3945-0.45703-0.34766-0.88672-0.68359-1.332-1.043-1.0781-0.82812-2.1484-1.6914-3.168-2.543-0.43359-0.34766-0.85156-0.70703-1.2734-1.043-1.2617-1.1055-2.5312-2.1953-3.6836-3.2539-0.023437-0.035157-0.058593-0.058594-0.085937-0.085938-3.1914-3-5.4961-5.1602-6.2891-5.9023-1.5234-1.4766-2.7617-2.7227-3.7305-3.7422-1.332-1.3906-2.1016-2.1953-2.1016-2.1953s-2.9023-3.0117-6.9102-7.9062c-0.9375-1.1523-2.2188-2.7344-3.6953-4.668-0.69531-0.88672-1.4141-1.8945-2.1953-2.9414-0.19141-0.26562-0.39453-0.5625-0.61328-0.83984-0.68359-0.98438-1.3906-1.9805-2.1133-3.0352-0.10938-0.13281-0.19141-0.26562-0.28906-0.38281-0.78125-1.1641-1.5977-2.375-2.375-3.6016-0.22656-0.32422-0.42188-0.66016-0.63672-0.97266-0.80469-1.2852-1.6211-2.5547-2.3867-3.875-0.48047-0.76953-0.94922-1.5859-1.4023-2.3516-0.39453-0.67188-0.76953-1.3203-1.1406-1.9805-0.046876-0.070312-0.085938-0.14453-0.12109-0.19141-2.6289-4.7031-4.8945-9.2773-6.5898-12.91-3.9727-8.4844-6.3125-14.953-6.3125-14.953s-1.6562-4.2344-3.7695-10.766c-0.23828-0.76953-0.49219-1.5859-0.75781-2.3984-0.046875-0.14453-0.097656-0.28906-0.13281-0.42188-0.19141-0.60156-0.37109-1.1992-0.5625-1.8008-0.070313-0.25391-0.14453-0.49219-0.22656-0.74219-0.035156-0.097656-0.058593-0.20312-0.085937-0.27734-0.80469-2.7344-1.6328-5.6758-2.4492-8.7461-0.046875-0.15625-0.085937-0.3125-0.12109-0.48047-0.19141-0.70703-0.37109-1.4414-0.5625-2.1602-0.14453-0.60156-0.28906-1.1875-0.44531-1.7773-0.070313-0.28906-0.14453-0.61328-0.21484-0.92578-0.16797-0.66016-0.3125-1.2969-0.46875-1.9688-0.21484-0.91016-0.43359-1.8359-0.64844-2.7461-0.22656-1.0078-0.44531-1.9805-0.66016-2.9766-0.12109-0.51562-0.22656-1.0312-0.32422-1.5469-0.097656-0.42188-0.16797-0.82813-0.25391-1.2461-0.14453-0.68359-0.27734-1.3438-0.40625-2.0273-0.023437-0.10938-0.046875-0.19141-0.058594-0.27734-0.49219-2.4609-0.92578-4.8594-1.3086-7.0938-0.011719-0.046875-0.035157-0.10938-0.046875-0.16797-0.10938-0.71875-0.25391-1.4023-0.33594-2.0898-0.070312-0.39453-0.15625-0.81641-0.21484-1.2109-0.085937-0.50391-0.16797-0.99609-0.25391-1.4766-0.43359-2.7109-0.80469-5.2188-1.1406-7.4414-0.085937-0.69531-0.14453-1.0938-0.14453-1.0938h-0.011719c-0.71875-5.1016-1.0664-8.375-1.0664-8.375s-0.39453-3.2539-0.91016-8.4258c0 0-0.70703-6.8164-1.332-15.875-0.28906-4.3672-0.57422-9.0234-0.76953-13.715-0.058594-1.1055-0.10938-2.2188-0.14453-3.3359-0.011719-0.26562-0.023437-0.52734-0.023437-0.80469-0.035157-0.79297-0.070313-1.6211-0.097657-2.4102-0.023437-0.37109-0.046875-0.74219-0.046875-1.1289-0.023437-0.71875-0.046875-1.4297-0.070312-2.1367-0.011719-0.37109-0.011719-0.75781-0.023438-1.1172-0.023437-0.91016-0.046875-1.8359-0.085937-2.7461-0.011719-0.51562-0.023438-1.0195-0.035157-1.5234 0-0.45703-0.011718-0.89844-0.023437-1.3555-0.023437-0.52734-0.035156-1.0547-0.046875-1.5469 0-0.45703-0.011719-0.91016-0.011719-1.3438-0.011719-0.78125-0.023437-1.5117-0.035156-2.2305-0.011719-0.40625-0.011719-0.82812-0.011719-1.2344-0.070312-4.2734-0.070312-7.0078-0.070312-7.0078h-0.011719c-0.023437-5.293 0-8.6875 0-8.6875 0.011719 0 0.058594-10.355 0.34766-23.578 0.12109-4.7031 0.25391-10.055 0.44531-15.445 0.74219-19.715 1.4883-39.434 1.4883-39.434s0.38281-8.6875 0.79297-20.375c0.011718-0.37109 0.023437-0.75781 0.035156-1.1641 0-0.097656 0.011719-0.19141 0.011719-0.27734 0.19141-5.293 0.37109-11.664 0.52734-18.098 0.085938-3.9258 0.15625-7.8359 0.22656-11.496 0-0.69531 0.011719-1.3672 0.011719-2.0273 0.011718-0.42188 0.011718-0.875 0.023437-1.2969 0.011719-2.1602 0.023438-4.2344 0.046875-6.2148v-0.25391c0.17969-5.5781 0.3125-9.2773 0.3125-9.2773 0-0.011719-0.011718-0.011719-0.023437-0.011719 0.15625-5.5781 0.25391-9.1328 0.25391-9.1328s0.085937-3.5625 0.097656-9.1562c0 0 0.046875-5.1602-0.085937-12.539-0.011719-0.64844-0.023438-1.3086-0.035156-1.9805 0-0.15625 0-0.32422-0.011719-0.50391-0.070313-3.3359-0.17969-6.8633-0.3125-10.477-0.023438-0.37109-0.046875-0.74219-0.058594-1.1289-0.023437-0.64844-0.046875-1.3086-0.085937-1.9688-0.046876-1.0938-0.10938-2.1953-0.17969-3.3125-0.20312-4.3086-0.49219-8.6172-0.80469-12.625-0.45703-5.7461-0.98437-11.148-1.4883-15.672-0.12109-1.2109-0.25391-2.3516-0.38281-3.4336-0.023438-0.14453-0.023438-0.22656-0.023438-0.22656-0.67188-5.6289-1.1992-9.2031-1.1992-9.2031s-0.48047-3.5898-1.3906-9.1914c0 0-0.78125-5.125-2.2305-12.434-0.14453-0.75781-0.28906-1.5469-0.45703-2.3164v-0.035157c-0.68359-3.4219-1.4531-7.0312-2.3047-10.727-0.058594-0.28906-0.12109-0.57422-0.21484-0.875-0.15625-0.70703-0.32422-1.4297-0.49219-2.1367-0.25391-1.0664-0.51562-2.1602-0.78125-3.2266-1.2109-5.0039-2.5938-9.9727-3.9102-14.426-1.4414-4.9062-2.8906-9.4688-4.2344-13.32-0.16797-0.53906-0.33594-1.0312-0.52734-1.5469-0.12109-0.38281-0.23828-0.71875-0.33594-0.99609-0.011718-0.058594-0.046875-0.12109-0.058594-0.17969-0.17969-0.52734-0.28906-0.81641-0.28906-0.81641-1.9062-5.4375-3.2656-8.8672-3.2656-8.8672s-1.2969-3.4453-3.5508-8.7852c0 0-0.52734-1.2852-1.4648-3.4336 0-0.011719 0-0.023438-0.011719-0.035156l-0.011719-0.011719c-0.66016-1.4883-1.4648-3.3594-2.4844-5.5195-0.035157-0.12109-0.085938-0.21484-0.14453-0.32422-0.91016-1.957-1.8711-4.0312-2.8789-6.1797-0.21484-0.49219-0.45703-0.99609-0.70703-1.5117-0.23828-0.50391-0.48047-1.0312-0.73047-1.5586-0.023438-0.046875-0.058594-0.12109-0.097656-0.16797-0.70703-1.4766-1.4297-2.9766-2.1953-4.4766-0.25391-0.51563-0.51562-1.0312-0.78125-1.5469-0.75781-1.5352-1.5352-3.0586-2.3281-4.5703-0.55078-1.0664-1.1172-2.1367-1.6797-3.1797-0.17969-0.34766-0.37109-0.68359-0.55078-1.0312-0.38281-0.69531-0.75781-1.3906-1.1523-2.0742-0.21484-0.39453-0.43359-0.78125-0.66016-1.1875-0.40625-0.75781-0.82813-1.4883-1.2461-2.207-0.14453-0.26562-0.28906-0.50391-0.43359-0.74219-0.58984-1.0312-1.1875-2.0391-1.7539-3.0117-0.046875-0.085937-0.10938-0.17969-0.16797-0.25391-4.9062-8.375-8.9531-14.461-8.9531-14.461-3.1211-4.7891-5.207-7.7773-5.207-7.7773s-2.9531-4.332-7.6094-10.621c-1.9688-2.6875-4.2969-5.7227-6.793-8.9141-0.035156-0.046874-0.070313-0.097656-0.12109-0.15625-1.6445-2.0625-3.3359-4.2227-5.1133-6.3945 1.0781 0.83984 2.1367 1.6562 3.168 2.4492 10.535 8.1133 18.742 14.688 18.742 14.688s11.617 9.2539 24.48 19.992c0.085937 0.085937 0.17969 0.15625 0.25391 0.22656 0.74219 0.63672 1.5117 1.2617 2.2695 1.9062 0.17969 0.14453 0.35938 0.30078 0.53906 0.45703 0.86328 0.74219 1.7539 1.4766 2.6172 2.207 0.86328 0.74219 1.7539 1.4883 2.6289 2.2188 0.17969 0.14453 0.33594 0.28906 0.50391 0.43359 0.73047 0.63672 1.4883 1.2617 2.2188 1.8945 0.10938 0.085937 0.22656 0.19141 0.32422 0.27734 12.742 10.883 23.797 20.797 23.797 20.797s11.148 9.9609 23.484 21.434c0.011718 0.011719 0.023437 0.023438 0.023437 0.023438 0.75781 0.70703 1.5352 1.4141 2.3047 2.1367 0.17969 0.16797 0.35938 0.33594 0.53906 0.50391 0.81641 0.78125 1.6562 1.5469 2.4727 2.3281 0.76953 0.71875 1.5469 1.4531 2.293 2.1719 0.43359 0.39453 0.83984 0.78125 1.2617 1.1875 0.3125 0.30078 0.63672 0.58984 0.9375 0.89844 0.52734 0.50391 1.0781 1.0078 1.5977 1.5 0.070313 0.058594 0.12109 0.12109 0.20312 0.17969 1.1523 1.0938 2.2812 2.1719 3.3594 3.2148 0.14453 0.13281 0.26562 0.25391 0.40625 0.38281 0.30078 0.27734 0.60156 0.5625 0.88672 0.85156 9.6953 9.2773 17.27 16.754 17.27 16.754s7.6328 7.5 17.172 17.074c0.23828 0.25391 0.46875 0.48047 0.71875 0.71875 0.22656 0.23828 0.44531 0.46875 0.68359 0.68359 1.5977 1.6094 3.2539 3.2891 4.9453 5.0156 0.17969 0.16797 0.34766 0.33594 0.50391 0.50391 0.51562 0.51562 1.0312 1.043 1.5352 1.5586 0.71875 0.73047 1.4297 1.4531 2.1484 2.1953 0.70703 0.70703 1.3906 1.4141 2.0742 2.125 5.2188 5.3398 10.211 10.523 13.801 14.258 0.085938 0.10938 0.17969 0.20312 0.27734 0.30078 0.28906 0.32422 0.57422 0.61328 0.86328 0.89844 1.1875 1.2461 2.3047 2.4258 3.3359 3.5039 0.50391 0.53906 0.80469 0.85156 0.80469 0.85156 3.707 3.875 6.0469 6.3594 6.0469 6.3594s3.3242 3.5508 8.3164 8.8789c0.57422 0.625 1.1758 1.2617 1.7891 1.9453 0.16797 0.17969 0.33594 0.35938 0.50391 0.55078 0.27734 0.30078 0.57422 0.60156 0.85156 0.91016 0.57422 0.64844 1.2227 1.3203 1.8594 2.0391 0.25391 0.25391 0.48047 0.50391 0.70703 0.76953 0.27734 0.3125 0.57422 0.625 0.86328 0.94922 3.5742 3.9375 7.4883 8.2695 11.352 12.66 4.8008 5.4258 9.5039 10.895 13.105 15.156 6.9961 8.2422 12.012 14.438 12.012 14.438s5.5781 6.793 12.707 15.949c2.293 2.9531 4.9336 6.3945 7.668 9.9961 0.070313 0.097656 0.14453 0.19141 0.20313 0.26562 0.48047 0.64844 0.96094 1.2852 1.4414 1.9219 0.61328 0.79297 1.1992 1.5977 1.7891 2.3984 0.5625 0.75781 1.1406 1.5234 1.7031 2.293 2.7227 3.6953 5.3516 7.332 7.6562 10.559 0.097657 0.13281 0.17969 0.26562 0.27734 0.39453 0.30078 0.43359 0.58984 0.82812 0.875 1.2461 6.7812 9.6016 11.723 17.027 11.723 17.027s4.9062 7.3203 11.062 17.16c0.3125 0.52734 0.66016 1.0547 0.98438 1.5977 0.058594 0.085938 0.10938 0.16797 0.15625 0.22656 1.6328 2.6523 3.4219 5.5664 5.2188 8.6055 0.12109 0.19141 0.22656 0.35937 0.33594 0.53906 0.34766 0.625 0.73047 1.2344 1.0938 1.8477 0.50391 0.85156 1.0195 1.7266 1.5234 2.6055 2.3633 4.0312 4.668 8.1016 6.7812 11.953 2.6992 4.8828 4.8945 9.0703 6.2148 11.566 3.1328 6.0352 5.1133 10.094 5.1133 10.094s3.8984 7.8242 8.5664 18.371c0.19141 0.44531 0.39453 0.91016 0.61328 1.3906 0.085937 0.20312 0.19141 0.40625 0.26562 0.625 1.1875 2.7344 2.4727 5.7461 3.7305 8.8555 0.12109 0.26562 0.23828 0.5625 0.34766 0.83984 0.23828 0.57422 0.46875 1.1641 0.70703 1.7539 0.37109 0.92578 0.74219 1.8594 1.1172 2.7969 0.625 1.6211 1.2461 3.2148 1.8359 4.8125 0.070312 0.17969 0.14453 0.34766 0.21484 0.53906 1.1758 3.1445 2.2578 6.1797 3.2266 8.9414 0.085938 0.26562 0.20312 0.52734 0.27734 0.79297 0.45703 1.332 0.88672 2.6289 1.2852 3.8047 0.058594 0.17969 0.10938 0.33594 0.16797 0.51562 0.25391 0.79297 0.52734 1.5703 0.76953 2.3281 0 0 0 0.011718 0.011719 0.023437 0.27734 0.89844 0.5625 1.7656 0.81641 2.6172 0.25391 0.80469 0.50391 1.5859 0.71875 2.3281 0.17969 0.52734 0.26562 0.83984 0.26562 0.83984 1.5 4.8828 2.3398 8.0273 2.3398 8.0273s1.9219 6.7422 4.0312 16.176c0.89844 4.0664 1.9805 9.2539 2.9141 14.746 0.011719 0.058594 0.011719 0.14453 0.023438 0.19141 0.14453 0.78125 0.25391 1.5703 0.39453 2.3516 0.13281 0.92578 0.28906 1.8711 0.42188 2.8086 0.14453 0.92578 0.26562 1.8828 0.38281 2.8086 0.12109 0.70703 0.20312 1.4141 0.28906 2.125 0.035157 0.21484 0.070313 0.40625 0.097657 0.60156 0.085937 0.78125 0.19141 1.5703 0.27734 2.3398v0.070312c0.16797 1.3789 0.32422 2.7461 0.44531 4.0547 0.046875 0.33594 0.097656 0.69531 0.13281 1.0195 0.035156 0.37109 0.058594 0.74219 0.097656 1.1055 0.058594 0.73047 0.15625 1.4531 0.20313 2.1719 0.023437 0.16797 0.023437 0.3125 0.035156 0.45703 0.26562 3.0352 0.45703 5.8672 0.57422 8.3984 0.046876 0.76953 0.070313 1.5352 0.10938 2.2812 0.023437 0.58984 0.046874 0.96094 0.046874 0.96094 0.19141 4.9922 0.16797 8.1602 0.16797 8.1602s0.046875 3.1797-0.10938 8.1602c0 0 0 0.32422-0.035156 0.875-0.023438 0.74219-0.070312 1.5234-0.10938 2.3516-0.011719 0.40625-0.035156 0.86328-0.058594 1.3086-0.12109 2.207-0.30078 5.0742-0.58984 8.3633-0.023438 0.21484-0.035157 0.43359-0.058594 0.64844-0.035156 0.50391-0.10938 0.99609-0.15625 1.5117-0.40625 4.1523-0.94922 8.5781-1.6797 12.949-0.15625 1.0195-0.33594 2.0273-0.49219 3.0352-0.085938 0.32422-0.14453 0.67188-0.20312 0.98438-0.13281 0.67188-0.23828 1.3086-0.35938 1.957-0.085938 0.42187-0.15625 0.82812-0.23828 1.2461-0.12109 0.58984-0.23828 1.1523-0.34766 1.7383-0.097656 0.37109-0.16797 0.78125-0.23828 1.1758-0.19141 0.875-0.38281 1.7383-0.57422 2.5938-0.085937 0.32422-0.14453 0.63672-0.21484 0.9375-0.16797 0.68359-0.3125 1.3555-0.48047 2.0156-0.046875 0.22656-0.097657 0.43359-0.14453 0.66016-0.38281 1.5469-0.75781 3.0117-1.1289 4.4141-0.22656 0.78125-0.42188 1.5117-0.60156 2.1602-0.13281 0.45703-0.25391 0.91016-0.37109 1.3438-0.17969 0.63672-0.35938 1.2344-0.52734 1.8125-0.27734 0.9375-0.44531 1.4766-0.44531 1.4766s0.011719 0 0.011719 0.011719c-0.57422 1.9922-1.0781 3.7305-1.4648 5.0625-0.57422 1.8008-0.875 2.832-0.875 2.832-0.007813-0.011718-1.0977 4.1875-3.5469 10.164z"/>
 <path d="m932.58 813.39-0.058594-0.085937 0.035157 0.79297-0.011719 0.15625-0.023438 0.74219-0.058593 1.2109-0.035157 0.68359-0.011719 0.25391c-0.097656 1.8945-0.25391 4.3672-0.50391 7.2227l-0.046875 0.45703-0.023437 0.3125-0.097656 0.89844c-0.38281 3.8984-0.83984 7.4648-1.4531 11.172l-0.15625 0.91016-0.13281 0.75781c-0.058594 0.30078-0.10938 0.58984-0.15625 0.83984l-0.35938 1.9062-0.19141 1.0547-0.15625 0.74219-0.10938 0.51562c-0.12109 0.51562-0.22656 1.0312-0.3125 1.5703l-0.17969 0.79297-0.27734 1.2344h0.011719l-0.046875 0.20312-0.25391 1.0547-0.15625 0.68359-0.17969 0.69531-0.10937 0.48047-0.85156 3.3945-0.45703 1.6211-0.19141 0.70703-0.046876 0.15625-0.20312 0.70703-0.097657 0.3125-0.21484 0.73047-0.39453 1.332-3.0352 9.9727c-0.16797 0.45703-0.33594 0.97266-0.5625 1.5352l-5.3867 12.035-0.49219 0.98438c-0.40625 0.74219-0.83984 1.5352-1.3438 2.3984l-0.011719 0.035157-0.097656 0.15625-0.17969 0.28906-0.16797 0.28906c-0.53906 0.9375-1.1172 1.8594-1.8945 3.1328-0.43359 0.70703-0.88672 1.3789-1.332 2.0508-0.3125 0.45703-0.63672 0.89844-0.92578 1.3555-0.43359 0.63672-0.875 1.2461-1.3438 1.8945l-0.46875 0.61328-0.23828 0.32422-0.74219 0.99609-0.66016 0.86328-0.68359 0.85156-1.3672 1.7148c-0.16797 0.17969-0.3125 0.35938-0.46875 0.55078l-0.60156 0.69531-0.66016 0.79297-0.80469 0.89844-1.4023 1.5234-0.49219 0.52734-0.070313 0.070312c-1.8359 1.9453-3.1445 3.2031-3.3477 3.3945l-0.45703 0.43359-0.34766 0.32422c-0.011719 0.023438-2.1836 2.1367-5.8555 5.1484l-0.97266 0.76953-0.48047 0.37109-0.22656 0.16797-0.28906 0.22656-0.13281 0.097656-1.1992 0.89844-0.25391 0.23828c-0.35937 0.25391-0.74219 0.53906-1.1523 0.81641l-1.0195 0.71875-0.20313 0.14453-1.3438 0.94922-0.33594 0.23828c-0.23828 0.15625-0.43359 0.28906-0.61328 0.40625l-2.293 1.4766-0.14453 0.085937c-0.28906 0.17969-0.55078 0.33594-0.71875 0.44531-1.0195 0.625-2.0508 1.2461-2.9531 1.7539l-2.293 1.25-0.45703 0.25391-0.058594 0.035156-0.34766 0.19141-0.625 0.3125c-0.67188 0.33594-1.332 0.68359-1.9922 1.0078l-0.28906 0.12109-0.68359 0.32422c-0.86328 0.42188-1.7031 0.78125-2.6641 1.2227l-0.57422 0.25391-0.058594 0.035156c-0.67188 0.28906-1.3203 0.57422-2.3633 0.98438-0.30078 0.12109-0.60156 0.23828-0.88672 0.34766l-0.49219 0.19141-0.14453 0.046875-0.67188 0.25391-0.60156 0.23828-0.58984 0.21484c-4.1523 1.4648-7.0312 2.2188-7.0195 2.2188l-0.58984 0.15625-0.42188 0.12109c-0.023438 0.011719-2.832 0.78125-7.0664 1.5469l-0.74219 0.12109-0.22656 0.046875-1.4297 0.21484-0.17969 0.046875-0.69531 0.10938-0.37109 0.046875-0.35937 0.046875c-0.53906 0.085937-1.1523 0.14453-1.7539 0.20312l-0.64844 0.085937-0.21484 0.023438-0.83984 0.070312-1.6914 0.15625-0.53906 0.035157h-0.10938c-0.85156 0.058593-1.7266 0.10937-2.6289 0.13281l-0.39453 0.011719h-0.070313l-0.42187 0.011719-2.0039 0.023437-1.2969-0.011719c-0.82812 0-1.6797-0.035156-2.6641-0.085937l-0.42188-0.035157-0.45703-0.023437c-0.74219-0.046875-1.4766-0.085937-2.2422-0.15625l-1.9336-0.25391h-0.46875c-0.22656-0.023438-0.44531-0.058594-0.67188-0.085938l-0.40625-0.046875-0.058593-0.085937-0.49219-0.070313c-0.71875-0.097656-1.4141-0.20312-2.6172-0.39453l-1.0195-0.20312-0.25391-0.035156-0.50391-0.10938-0.12109 0.58984-1.332-0.875c-3.6016-0.80469-5.9766-1.5703-5.9883-1.5703h0.011719l-0.81641-0.26562-0.61328-0.19141c-0.023438-0.011719-2.5195-0.76953-6.457-2.4492-0.57422-0.23828-1.1758-0.50391-1.7891-0.79297l-7.043-4.0312h-0.57422l-0.32422-0.19141-0.35938-0.23828-0.38281-0.23828c-1.0781-0.66016-2.1484-1.3555-3.4062-2.2305-1.0781-0.71875-2.1133-1.4883-2.8789-2.0742l-0.51562-0.38281-0.011719-0.023437-0.37109-0.30078-0.38281-0.28906c-0.69531-0.52734-1.3672-1.0781-2.0156-1.6211l-0.66016-0.53906-0.17969-0.14453-0.10938-0.16797-3.1328-2.7109-4.5-4.2227-0.85156-0.79297c-1.0547-1.0195-1.9219-1.8711-2.7852-2.7852l-2.1133-2.2188c-0.35938-0.37109-2.3516-2.5078-5.0039-5.7461-0.75781-0.91016-1.7773-2.1953-3.1445-3.9727l-0.97266-1.2969-0.46484-0.61328c-0.19141-0.26562-0.37109-0.53906-0.57422-0.80469l-0.58984-0.82812-0.96094-1.3906-0.91016-1.332-0.13281-0.16797c-0.42188-0.63672-0.88672-1.332-1.4531-2.2188l-0.28906-0.45703-0.25391-0.40625c-0.45703-0.73047-0.92578-1.4531-1.3555-2.207l-0.25391-0.42188-0.26562-0.42188-0.66016-1.1172-0.34766-0.60156-0.058593-0.085938-0.55078-0.98437-0.74219-1.3086-0.070313-0.12109c-2.0508-3.7422-3.6953-7.1523-4.7891-9.5039-3.1562-6.7305-5.0742-11.941-5.0742-11.941l-0.15625-0.42188-0.14453-0.37109c-0.15625-0.38281-1.3906-3.6484-2.9883-8.543-0.22656-0.71875-0.45703-1.4531-0.71875-2.2578l-0.17969-0.5625-0.38281-1.2227c-0.085937-0.30078-0.17969-0.60156-0.26562-0.89844l-0.023438-0.10938c-0.68359-2.2695-1.3555-4.7031-2.0391-7.2227l-0.035157-0.20312-0.23828-0.86328-0.26562-1.0312-0.19141-0.74219-0.39453-1.6094-0.10938-0.46875-0.12109-0.45703-0.3125-1.332-0.35938-1.5469-0.20312-0.86328-0.23828-1.0547-0.46875-2.1367-0.25391-1.1875-0.25391-1.2461-0.23828-1.1289-0.17969-0.88672-0.035156-0.15625c-0.38281-2.0039-0.74219-3.9609-1.0547-5.7852l-0.23828-1.332-0.011719-0.058593-0.046874-0.27734-0.12109-0.67188-0.10938-0.63672-0.023438-0.097656-0.23828-1.3906c-0.38281-2.4258-0.73047-4.6797-1.0195-6.6953-0.046875-0.38281-0.10938-0.75781-0.17969-1.1523h0.011719c-0.58984-4.1992-0.88672-6.9727-0.98438-7.7383-0.023437-0.19141-0.37109-3.1094-0.82812-7.7539-0.023438-0.25391-0.66016-6.4805-1.2344-14.605-0.26562-4.1055-0.53906-8.4492-0.74219-13.223l-0.12109-2.7344v-0.30078l-0.035156-0.78125-0.070313-1.8828-0.035156-0.81641-0.011719-0.13281-0.011719-0.30078-0.058593-2.0625-0.023438-0.99609-0.085938-2.5664-0.035156-1.5469-0.023437-1.4531-0.011719-0.33594-0.011719-0.32422-0.011719-0.625 0.042969-0.48047v-0.71875l-0.046875-2.5547v-0.94922l-0.070312-5.7109c0-0.28906-0.011719-0.58984-0.011719-0.875-0.023437-4.9688 0-8.1719 0-8.2695h-0.011719c0.011719-0.38281 0.023438-0.76953 0.023438-1.1758 0.023437-3.0586 0.10938-11.566 0.32422-21.742 0.12109-4.5977 0.25391-9.8281 0.43359-15l1.4766-39.18s0.39453-8.832 0.80469-20.844l0.023438-0.74219 0.046875-0.69531v-0.50391c0.19141-5.2812 0.35938-11.555 0.51562-17.977l0.16797-8.1484 0.058594-3.4062 0.011719-0.34766v-1.0898l0.011719-0.96094 0.011718-0.625 0.011719-0.40625v-0.40625l0.046875-5.9766 0.28906-8.6055 0.17969-37.367c-0.085937-2.9648-0.17969-6.0352-0.28906-9.1797l-0.035156-0.67188-0.023438-0.45703-0.097656-2.125c-0.046875-1.2227-0.12109-2.4609-0.19141-3.7188-0.22656-4.6094-0.53906-9.2266-0.875-13.5-0.48047-6.1797-1.0547-11.965-1.5352-16.285-0.070312-0.75781-0.15625-1.4883-0.25391-2.2812v-0.046875l-0.22656-2.1094c-0.70703-5.8672-1.2617-9.7305-1.2734-9.7695-0.046875-0.42187-0.57422-4.2734-1.4766-9.8281 0 0-0.81641-5.375-2.2695-12.793v-0.085938l-0.69531-3.4805c-0.50391-2.5312-1.0547-5.1719-1.6445-7.8477 2.7461 2.6875 4.4297 4.332 4.4766 4.3906 0.058594 0.058594 7.5469 7.4141 16.895 16.812l0.33594 0.33594c0.39453 0.40625 0.79297 0.81641 1.2109 1.2227l4.1523 4.2109 0.48047 0.49219 0.46484 0.46484 0.12109 0.10938 1.3555 1.3906 0.94922 0.97266 1.4023 1.4297 1.8828 1.9453c4.1992 4.2969 8.2578 8.4961 11.531 11.891l0.91016 0.96094 0.99609 1.2461 1.3672 1.2227c0.058593 0.058594 0.12109 0.13281 0.19141 0.19141l2.8086 2.9531c0.60156 0.64844 1.0078 1.0664 1.0781 1.1523l5.7461 6.0352 8.0273 8.5664 1.1875 1.2734 0.45703 0.49219 0.22656 0.25391 0.035156 0.035157 0.097656 0.085937 0.046875 0.058594 0.20312 0.21484c-0.058594-0.058593-0.10938-0.12109-0.16797-0.17969l0.64844 0.68359 1.4531 1.6094 0.46875 0.50391 0.625 0.68359 0.085938 0.085937 0.25391 0.27734 0.88672 0.98438c3.457 3.8164 7.2461 8.0039 11.09 12.371 4.6094 5.1836 9.1094 10.441 12.59 14.555 6.6016 7.7656 11.352 13.645 11.652 13.992 0.13281 0.15625 5.3867 6.5625 12.098 15.191 2.2188 2.8438 4.7539 6.1562 7.2734 9.5039l0.75781 1.0078 0.023438 0.035156 1.0664 1.4141 1.4297 1.9219 0.875 1.1875 0.79297 1.0781c2.4102 3.2891 4.7656 6.5273 7.0547 9.7305l0.88672 1.3203 0.30078 0.37109 0.14453 0.19141c6.3711 9.0234 11.027 16.031 11.219 16.297 0.13281 0.20312 4.7266 7.0547 10.453 16.223v-0.011719l0.74219 1.2227 0.69531 1.1523 0.16797 0.22656c1.3438 2.207 2.8086 4.5859 4.2617 7.043l0.27734 0.46875 0.19141 0.30078 0.15625 0.25391 0.46875 0.78125 0.3125 0.53906 0.33594 0.57422 1.1641 1.9922c2.1953 3.7305 4.3203 7.5 6.3008 11.113 2.543 4.6211 4.6328 8.5664 5.7734 10.754 2.8203 5.4492 4.6445 9.1562 4.8359 9.5742 0.035156 0.070312 3.6367 7.2969 7.8594 16.871h0.011719l0.51562 1.1992 0.25391 0.58984c1.0664 2.4609 2.2422 5.1719 3.3594 7.9688l0.22656 0.57422 0.20312 0.45703 0.67188 1.6562 0.52734 1.332 0.33594 0.85156 0.46875 1.2227 1.2461 3.2539 0.058594 0.15625 0.16797 0.40625c1.0312 2.7734 2.0039 5.4609 2.8555 7.9219 0.12109 0.34766 0.23828 0.69531 0.35938 1.0312l0.23828 0.71875 4.2461 13.297c0.70703 2.3867 1.1406 3.9727 1.2852 4.5117 0.011719 0.058594 1.7031 6.0234 3.5156 14.148 0.73047 3.2539 1.5703 7.2969 2.3398 11.652l0.13281 1.4414 0.34766 1.4141 0.12109 0.68359 0.17969 1.2109 0.20312 1.3203 0.25391 1.9062 0.12109 0.92578 0.12109 0.70703 0.085938 0.66016 0.011718 0.085937 0.097656 0.63672v0.011719l0.25391 2.125c0.12109 0.9375 0.22656 1.8477 0.30078 2.7461l0.13281 1.1992 0.085938 0.625h-0.011719l0.16797 1.6328 0.035156 0.61328v0.046875l0.046875 0.71875 0.046875 0.3125c0.20312 2.3281 0.34766 4.5469 0.46875 6.9961l0.035156 0.80469 0.023438 0.74219 0.046875 0.86328c0.14453 3.7695 0.14453 6.2539 0.14453 6.5391v0.74219c-0.035156 0.26172-0.023437 2.7461-0.14453 6.4883z"/>
</svg>
